<?xml version="1.0" encoding="UTF-8" standalone="no"?>
<!-- Created with Inkscape (http://www.inkscape.org/) -->

<svg
   width="331.46927mm"
   height="206.22581mm"
   viewBox="0 0 331.46927 206.22581"
   version="1.1"
   id="SVGRoot"
   sodipodi:docname="logo_dark_nobg.svg"
   inkscape:version="1.2.2 (b0a8486541, 2022-12-01)"
   xmlns:inkscape="http://www.inkscape.org/namespaces/inkscape"
   xmlns:sodipodi="http://sodipodi.sourceforge.net/DTD/sodipodi-0.dtd"
   xmlns="http://www.w3.org/2000/svg"
   xmlns:svg="http://www.w3.org/2000/svg">
  <sodipodi:namedview
     id="namedview886"
     pagecolor="#ffffff"
     bordercolor="#000000"
     borderopacity="0"
     inkscape:showpageshadow="false"
     inkscape:pageopacity="0"
     inkscape:pagecheckerboard="true"
     inkscape:deskcolor="#d1d1d1"
     inkscape:document-units="mm"
     showgrid="false"
     inkscape:zoom="0.97671265"
     inkscape:cx="814.46678"
     inkscape:cy="325.58194"
     inkscape:window-width="1536"
     inkscape:window-height="877"
     inkscape:window-x="0"
     inkscape:window-y="0"
     inkscape:window-maximized="1"
     inkscape:current-layer="#7803aaff"
     showborder="true"
     borderlayer="false"
     shape-rendering="auto" />
  <defs
     id="defs881" />
  <g
     id="#34071cff"
     transform="matrix(0.96429431,0,0,1.0457823,-20.877387,-16.13203)"
     inkscape:label="ronin">
    <path
       fill="#34071c"
       opacity="1"
       d="m 195.24,16.54 c 3.27,-0.77 6.61,-1.25 9.98,-1.08 0.3,2.63 0.1,5.27 -0.45,7.85 -0.79,7.88 0.11,15.82 -0.61,23.69 -0.93,4.96 -0.35,10.02 -0.73,15.02 -3.02,-0.13 -5.08,-2.4 -7.29,-4.16 -6.03,-4.68 -9.25,-11.99 -15.27,-16.69 -2.93,-2.07 -4.81,-5.17 -7.34,-7.65 -0.38,5.02 -0.23,10.06 -0.06,15.09 0.05,4.03 1.38,7.91 1.3,11.96 -3,0.6 -6.12,1.06 -9,-0.25 -0.19,-6.11 -0.3,-12.22 -0.05,-18.33 0.35,-8.31 -0.65,-16.62 -0.2,-24.93 5.06,0.18 8.02,4.84 11.12,8.2 6.39,6.88 10.7,15.73 18.67,21.09 -0.04,-9.94 0.14,-19.87 -0.07,-29.81 z"
       id="path13" />
    <path
       fill="#34071c"
       opacity="1"
       d="m 129.24,29.68 c 2.55,-1.43 5.35,-2.37 8.28,-2.49 5.02,13.72 10.85,27.12 16.41,40.62 -2.72,1.19 -5.48,2.32 -8.35,3.11 -6.53,-13.31 -9.82,-27.91 -16.34,-41.24 z"
       id="path15" />
    <path
       fill="#34071c"
       opacity="1"
       d="m 268.08,33.17 c 7.66,4.5 15.28,9.07 22.89,13.64 -0.58,2.45 -1.42,5.17 -3.3,6.88 -2.3,-0.21 -4.04,-2.42 -6.06,-3.47 -4.23,5.32 -6.1,12.01 -9.29,17.94 -2.47,5.14 -6.35,9.54 -8.09,15.05 -3.21,-1.45 -6.3,-3.15 -9.43,-4.74 8.39,-9.56 12.46,-21.83 18.97,-32.58 -3.12,-1.59 -6.29,-3.08 -9.52,-4.41 1.35,-2.73 2.62,-5.51 3.83,-8.31 z"
       id="path17" />
    <path
       fill="#34071c"
       opacity="1"
       d="m 97.49,46.99 c 0.84,-3.27 4.81,-5.14 7.55,-6.95 7.78,13.4 17.03,25.86 24.91,39.2 -2.55,1.23 -5.32,0.88 -8.01,0.47 -7.93,-0.31 -15.02,-4.62 -22.95,-5.02 -3.52,-0.05 -6.76,-1.49 -10.09,-2.46 4.02,7.58 9.56,14.31 15.64,20.33 1.46,3.01 -2.33,4.32 -4.23,5.72 -0.97,0.81 -2.23,0.24 -2.88,-0.66 C 92.32,92.45 89.15,85.8 85.1,79.84 81.14,74.14 75.58,69.37 73.19,62.7 c 7.07,-1.29 13.96,1.57 20.72,3.24 6.57,2.52 13.37,4.59 20.45,4.96 -5.93,-7.76 -10.99,-16.13 -16.87,-23.91 z"
       id="path19" />
    <path
       fill="#34071c"
       opacity="1"
       d="m 309.44,71.66 c 2.96,-0.57 6.15,-0.85 9.08,0.02 3.55,1.82 6.88,4.2 9.68,7.05 4.3,7.19 8.63,15.65 5.95,24.19 -5.04,10.68 -17.86,18.95 -29.72,14.63 -7.9,-2.02 -13.44,-9.04 -15.72,-16.58 -0.5,-4.65 -0.57,-9.54 1.31,-13.91 1.87,-5.05 6.34,-8.4 10.42,-11.61 2.55,-2.16 5.83,-3.03 9,-3.79 m -0.12,7.43 c -6.41,1.2 -13.22,5.41 -14.78,12.13 -3.66,10.52 7.47,22.95 18.41,19.7 6.11,-1.43 13.83,-3.84 15.26,-10.89 0.54,-6.28 -3.08,-11.92 -6.3,-17.01 -2.32,-4.47 -8.18,-5.1 -12.59,-3.93 z"
       id="path21" />
    <path
       fill="#34071c"
       opacity="1"
       d="m 165.23,91.25 c 12.65,-3.03 25.81,-3.36 38.75,-2.52 -1.71,2.61 -3.73,5.01 -6.14,7 -3.96,3.27 -7.53,6.99 -11.63,10.08 5.48,-1.65 11.93,-2.19 16.67,1.65 2,1.9 3.76,4.04 5.43,6.25 0.32,0.42 0.94,1.27 1.25,1.7 1.25,1.74 2.47,3.51 3.59,5.34 0.68,1.15 1.32,2.32 1.93,3.52 0.75,1.48 1.48,2.97 2.17,4.48 0.54,1.18 1.03,2.39 1.48,3.61 0.53,1.49 1.04,2.99 1.48,4.52 0.12,0.84 0.36,2.52 0.48,3.36 -0.4,1.56 -0.9,3.09 -1.42,4.62 -0.19,0.52 -0.55,1.56 -0.73,2.08 0.31,0.36 0.94,1.09 1.25,1.46 1.67,1.95 3.54,3.71 5.4,5.49 0.87,0.84 1.69,1.73 2.45,2.68 1.29,1.69 2.5,3.45 3.77,5.17 0.87,1.16 1.69,2.37 2.73,3.4 2.15,1.63 4.41,3.1 6.55,4.75 7.05,5.99 14.84,11.53 19.82,19.5 1.31,2.01 2.54,4.18 4.63,5.5 3.75,2.56 6.96,6.84 6.32,11.62 -1.53,2.89 -5.12,2.23 -7.82,2.14 -0.54,-3.21 -0.96,-6.47 -2.11,-9.52 -5.04,1.54 -8.73,5.73 -13.69,7.55 -4.52,2.56 -9.78,1.61 -14.71,1.63 -6.22,0.88 -12.72,0.41 -18.61,-1.86 -1.72,-0.65 -2.62,-2.36 -3.41,-3.89 -2.36,-4.57 -4.08,-9.6 -7.79,-13.31 -0.52,1.38 -1.03,2.77 -1.46,4.19 l -0.26,1.11 c -0.61,2.37 -1.25,4.92 -0.06,7.23 0.83,1.55 1.76,3.04 2.6,4.59 -8.29,2.48 -16.81,4.08 -25.37,5.33 -4.89,0.77 -9.9,1.25 -14.84,0.66 -2.53,-0.39 -5.63,-1.52 -6.2,-4.36 -0.19,-5.95 -0.01,-11.92 -0.22,-17.88 -12.42,3.55 -24.75,7.4 -37.11,11.12 -2.08,0.65 -4.27,0.27 -6.39,0.2 14.33,-5.48 29.07,-9.83 43.56,-14.88 0.27,-4.88 -0.89,-10.13 1.58,-14.61 1.14,-2.31 2.35,-4.59 3.72,-6.77 0.78,-1.24 1.74,-2.36 2.7,-3.46 1.38,-1.58 2.71,-3.2 3.88,-4.93 0.03,-1.34 -0.06,-2.68 -0.28,-4.01 -0.42,-1.56 -0.94,-3.1 -1.52,-4.61 -0.46,-1.18 -0.91,-2.36 -1.34,-3.55 -0.55,-1.55 -1.08,-3.11 -1.58,-4.68 -0.38,-1.14 -0.7,-2.29 -0.99,-3.46 -0.23,-1.85 -0.36,-3.71 -0.43,-5.56 -0.43,-4.58 0.86,-9.05 3.38,-12.85 -5.72,1.95 -11.33,5.3 -17.59,4.46 0.44,-2.89 1.83,-5.49 3.24,-8.02 3.73,-6.74 6.89,-13.79 10.42,-20.64 0.64,-0.98 1.11,-2.44 2.47,-2.62 z"
       id="path23" />
    <path
       fill="#34071c"
       opacity="1"
       d="m 53.36,99.33 c 4.02,-1.63 8.5,-0.44 12.5,0.67 8.14,2.57 15.77,9.2 17,18 2.08,8.07 -1.82,16.62 -7.82,21.99 -4.92,3.44 -10.97,5.81 -17.06,5.07 -9.48,-1.87 -18.91,-7.66 -22.23,-17.14 -0.61,-4.73 0.43,-9.68 2.21,-14.07 4.16,-5.67 8.4,-12.16 15.4,-14.52 m 3.07,6.19 c -4.77,1.44 -7.46,5.88 -10.27,9.64 -1.81,2.93 -4.6,5.99 -3.25,9.7 2.34,7.57 9.19,13.82 17.16,14.83 5.01,-0.13 10.46,-1.97 13.12,-6.53 3.2,-3.91 4.16,-9.18 3.03,-14.05 -2.32,-5.1 -6.24,-9.41 -10.88,-12.51 -2.58,-1.74 -5.99,-1.93 -8.91,-1.08 z"
       id="path25" />
    <path
       fill="#34071c"
       opacity="1"
       d="m 333.44,139.31 c 6.55,-5.97 12.47,-12.71 17.64,-19.92 3.3,0.53 3.96,4.06 5.36,6.54 -3.6,4.89 -7.83,9.22 -12.14,13.47 5.59,2.38 11.31,4.55 17.21,5.99 0.93,2.84 1.9,5.68 2.44,8.64 -3.21,-0.44 -6.33,-1.38 -9.3,-2.66 -3.93,-1.78 -8.3,-2.19 -12.3,-3.78 -1.65,-0.58 -3.38,-1.52 -5.11,-0.67 -7.36,2.38 -14.94,4.1 -22.1,7.05 -1.29,-2.86 -2.25,-5.85 -2.8,-8.94 7.06,-1.81 14.02,-4 21.1,-5.72 z"
       id="path27" />
    <path
       fill="#34071c"
       opacity="1"
       d="m 25.01,173.89 c 1.98,-7.36 12.98,-11.2 18.39,-5.28 2.37,2.62 3.35,6.13 4.47,9.39 5.95,-4.18 12.04,-8.19 18.39,-11.74 2.48,-1.12 2.34,2.25 2.36,3.76 -0.17,1.41 0.7,3.64 -1.02,4.37 -5.42,3.24 -11.39,5.73 -15.91,10.27 -0.75,1.04 -2.54,1.89 -2.07,3.4 5.96,1.19 12.11,1.26 18.11,2.34 0,2.1 -0.02,4.21 -0.07,6.32 -7.53,-0.81 -15.07,-1.25 -22.65,-1.26 -7.44,-0.97 -14.96,-1.77 -22.46,-0.97 -2.31,-6.81 0.31,-14.08 2.46,-20.6 m 8.57,-0.39 c -4.58,3.11 -3.98,9.23 -4.2,14.08 4.32,0.06 8.63,0.3 12.95,0.08 0.36,-4.34 0.15,-8.94 -2.22,-12.75 -1.52,-1.77 -4.52,-3.33 -6.53,-1.41 z"
       id="path29" />
    <path
       fill="#34071c"
       opacity="1"
       d="m 321.77,191.31 c -2.9,-8.17 0.79,-19.35 9.94,-21.47 1.04,1.93 2.08,3.87 3.04,5.85 -2.9,1.44 -6.42,3.59 -6.19,7.33 -0.42,3.36 2.71,6.61 6.14,5.65 6.48,-3.09 9.68,-11.33 17.35,-12.34 5.26,-2.04 12.04,1.04 13.29,6.69 0.49,5.21 -2.5,9.77 -4.9,14.13 -2.57,-0.94 -4.82,-2.52 -6.98,-4.17 2.03,-2.08 5.76,-3.53 5.36,-6.98 1.01,-4.21 -4.84,-5.88 -7.67,-3.84 -4.1,2.91 -6.53,7.45 -9.99,10.99 -5.21,5.37 -15.53,4.91 -19.39,-1.84 z"
       id="path31" />
  </g>
  <g
     id="#7803aaff"
     transform="matrix(0.96429431,0,0,1.0457823,-20.877387,-16.13203)"
     inkscape:label="sun">
    <path
       fill="#7803aa"
       opacity="1"
       d="m 202.88,107.46 c 6.63,0.45 13.24,1.93 19.27,4.78 -4.58,0.61 -9.75,-1.2 -13.84,1.47 -1.67,-2.21 -3.43,-4.35 -5.43,-6.25 z"
       id="path34"
       style="fill:#f4d03f;fill-opacity:1" />
    <path
       fill="#7803aa"
       opacity="1"
       d="m 209.56,115.41 c 5.47,0.47 10.97,0.13 16.45,0.22 3.64,-0.24 6.14,2.86 8.96,4.67 -7.27,0.22 -14.59,-0.47 -21.82,0.45 -1.12,-1.83 -2.34,-3.6 -3.59,-5.34 z"
       id="path36"
       style="fill:#f4d03f;fill-opacity:1" />
    <path
       fill="#7803aa"
       opacity="1"
       d="m 215.08,124.27 c 7.82,0.37 15.64,0.05 23.47,0.2 1.08,1.34 2.19,2.67 3.33,3.97 -8.21,0.1 -16.44,-0.39 -24.63,0.31 -0.69,-1.51 -1.42,-3 -2.17,-4.48 z"
       id="path38"
       style="fill:#f4d03f;fill-opacity:1" />
    <path
       fill="#7803aa"
       opacity="1"
       d="m 159.01,136.52 c 1.19,-2.05 2.48,-4.06 4.3,-5.6 0.07,1.85 0.2,3.71 0.43,5.56 -1.58,0.02 -3.15,0.03 -4.73,0.04 z"
       id="path40"
       style="fill:#f4d03f;fill-opacity:1" />
    <path
       fill="#7803aa"
       opacity="1"
       d="m 218.73,132.36 c 8.03,0.12 16.07,-0.11 24.1,0.08 2.19,-0.12 2.25,2.66 3.2,4.06 -8.6,0.25 -17.24,-0.4 -25.82,0.38 -0.44,-1.53 -0.95,-3.03 -1.48,-4.52 z"
       id="path42"
       style="fill:#f4d03f;fill-opacity:1" />
    <path
       fill="#7803aa"
       opacity="1"
       d="m 157.66,140.66 c 2.36,-0.16 4.73,-0.31 7.07,-0.72 0.5,1.57 1.03,3.13 1.58,4.68 -3.03,0.03 -6.07,0.02 -9.1,0.05 0.16,-1.34 0.31,-2.67 0.45,-4.01 z"
       id="path44"
       style="fill:#f4d03f;fill-opacity:1" />
    <path
       fill="#7803aa"
       opacity="1"
       d="m 220.69,140.24 c 8.94,0.47 17.91,0.13 26.86,0.2 0.07,1.42 0.15,2.83 0.24,4.25 -9.5,0.01 -19.03,-0.29 -28.52,0.17 0.52,-1.53 1.02,-3.06 1.42,-4.62 z"
       id="path46"
       style="fill:#f4d03f;fill-opacity:1" />
    <path
       fill="#7803aa"
       opacity="1"
       d="m 156.36,148.45 c 3.77,0.08 7.55,0.16 11.29,-0.28 0.58,1.51 1.1,3.05 1.52,4.61 -4.29,-0.21 -8.6,-0.17 -12.9,-0.09 0.04,-1.42 0.07,-2.83 0.09,-4.24 z"
       id="path48"
       style="fill:#f4d03f;fill-opacity:1" />
    <path
       fill="#7803aa"
       opacity="1"
       d="m 219.79,148.4 c 9.89,0.21 19.79,0.05 29.68,0.08 0.02,1.39 0.04,2.78 0.09,4.17 -6.2,0.01 -12.39,-0.06 -18.59,-0.02 -2,-0.05 -3.91,0.64 -5.78,1.26 -1.86,-1.78 -3.73,-3.54 -5.4,-5.49 z"
       id="path50"
       style="fill:#f4d03f;fill-opacity:1" />
    <path
       fill="#7803aa"
       opacity="1"
       d="m 227.64,156.57 c 7.28,0.05 14.57,0.05 21.86,-0.03 -0.02,1.36 -0.01,2.73 0,4.09 -6.02,0.31 -12.27,-0.9 -18.09,1.11 -1.27,-1.72 -2.48,-3.48 -3.77,-5.17 z"
       id="path52"
       style="fill:#f4d03f;fill-opacity:1" />
    <path
       fill="#7803aa"
       opacity="1"
       d="m 156.34,157.05 c 4.34,-0.64 8.75,-0.54 13.11,-0.26 -1.17,1.73 -2.5,3.35 -3.88,4.93 -2.99,-1.05 -6.16,-1.22 -9.31,-1.12 0.04,-1.18 0.06,-2.36 0.08,-3.55 z"
       id="path54"
       style="fill:#f4d03f;fill-opacity:1" />
    <path
       fill="#7803aa"
       opacity="1"
       d="m 157.03,165.49 c 1.95,-0.09 3.89,-0.18 5.84,-0.31 -1.37,2.18 -2.58,4.46 -3.72,6.77 -0.63,-2.18 -1.38,-4.32 -2.12,-6.46 z"
       id="path56"
       style="fill:#f4d03f;fill-opacity:1" />
    <path
       fill="#7803aa"
       opacity="1"
       d="m 234.14,165.14 c 4.55,0.38 9.12,0.27 13.68,0.18 -0.1,1.07 -0.19,2.15 -0.26,3.24 -2.28,0.51 -4.57,0.93 -6.87,1.33 -2.14,-1.65 -4.4,-3.12 -6.55,-4.75 z"
       id="path58"
       style="fill:#f4d03f;fill-opacity:1" />
    <path
       fill="#7803aa"
       opacity="1"
       d="m 203.32,189.25 c 3.71,3.71 5.43,8.74 7.79,13.31 -2.94,-1.68 -6.38,-1.04 -9.57,-0.78 -1.19,-2.31 -0.55,-4.86 0.06,-7.23 -0.02,0.71 -0.08,2.13 -0.1,2.84 2.15,0.11 4.3,0.09 6.46,0.03 -0.97,-2.69 -3.5,-3.6 -6.1,-3.98 0.43,-1.42 0.94,-2.81 1.46,-4.19 z"
       id="path60"
       style="fill:#f4d03f;fill-opacity:1" />
  </g>
</svg>
