<?xml version="1.0" encoding="UTF-8" ?>
<!DOCTYPE svg PUBLIC "-//W3C//DTD SVG 1.1//EN" "http://www.w3.org/Graphics/SVG/1.1/DTD/svg11.dtd">
<svg width="796pt" height="657pt" viewBox="0 0 796 657" version="1.1" xmlns="http://www.w3.org/2000/svg">
<g id="#3c123552">
<path fill="#3c1235" opacity="0.32" d=" M 378.78 137.86 C 381.91 137.16 385.14 137.14 388.33 137.32 C 385.15 137.55 381.96 137.72 378.78 137.86 Z" />
<path fill="#3c1235" opacity="0.32" d=" M 401.72 137.12 C 409.56 136.88 417.49 136.71 425.27 137.86 C 417.42 137.70 409.57 137.43 401.72 137.12 Z" />
<path fill="#3c1235" opacity="0.32" d=" M 389.42 172.45 C 389.82 172.09 390.63 171.38 391.03 171.02 C 391.49 171.36 392.40 172.05 392.85 172.39 C 391.88 172.72 389.85 174.02 389.42 172.45 Z" />
<path fill="#3c1235" opacity="0.32" d=" M 310.48 208.49 C 314.06 208.46 317.64 208.48 321.21 208.23 C 317.71 209.19 314.03 209.33 310.48 208.49 Z" />
<path fill="#3c1235" opacity="0.32" d=" M 328.14 349.48 C 329.17 362.02 328.20 374.63 328.69 387.20 C 327.74 374.66 327.97 362.04 328.14 349.48 Z" />
<path fill="#3c1235" opacity="0.32" d=" M 481.69 387.70 C 489.84 386.61 498.07 387.90 506.25 387.23 C 498.13 388.63 489.87 387.20 481.69 387.70 Z" />
<path fill="#3c1235" opacity="0.32" d=" M 551.42 387.96 C 553.50 387.85 555.59 387.92 557.69 387.99 C 556.91 389.91 552.15 389.88 551.42 387.96 Z" />
<path fill="#3c1235" opacity="0.32" d=" M 344.81 396.08 C 349.27 396.13 353.73 396.10 358.20 396.04 C 353.80 397.03 349.21 397.00 344.81 396.08 Z" />
<path fill="#3c1235" opacity="0.32" d=" M 606.78 426.74 C 609.39 425.70 612.18 425.06 615.00 425.56 C 612.26 425.99 609.52 426.37 606.78 426.74 Z" />
<path fill="#3c1235" opacity="0.32" d=" M 354.22 426.16 C 355.55 426.27 356.88 426.38 358.21 426.51 C 357.41 426.66 355.81 426.96 355.01 427.11 C 354.64 429.12 354.28 431.14 353.98 433.17 C 354.00 430.83 354.08 428.49 354.22 426.16 Z" />
<path fill="#3c1235" opacity="0.32" d=" M 653.79 426.85 C 657.22 426.10 660.79 426.05 664.21 426.90 C 660.73 426.87 657.26 426.88 653.79 426.85 Z" />
<path fill="#3c1235" opacity="0.32" d=" M 91.75 427.44 C 94.65 427.36 97.54 427.28 100.44 427.28 C 97.55 427.45 94.65 427.54 91.75 427.44 Z" />
<path fill="#3c1235" opacity="0.32" d=" M 103.17 427.43 C 104.42 426.04 108.41 425.96 108.68 428.08 C 106.82 428.10 104.98 427.83 103.17 427.43 Z" />
<path fill="#3c1235" opacity="0.32" d=" M 241.58 433.82 C 240.22 432.53 240.06 428.75 242.06 428.25 C 242.29 430.12 241.98 431.99 241.58 433.82 Z" />
<path fill="#3c1235" opacity="0.32" d=" M 310.16 428.34 C 312.01 428.74 312.11 433.36 310.17 433.66 C 310.10 431.88 310.04 430.11 310.16 428.34 Z" />
<path fill="#3c1235" opacity="0.32" d=" M 474.68 429.10 C 479.89 429.09 485.10 429.13 490.32 429.21 C 485.12 429.74 479.86 429.85 474.68 429.10 Z" />
<path fill="#3c1235" opacity="0.32" d=" M 498.68 429.24 C 501.85 429.00 505.08 428.95 508.20 429.71 C 505.02 429.67 501.84 429.48 498.68 429.24 Z" />
<path fill="#3c1235" opacity="0.32" d=" M 682.30 429.80 C 683.01 427.82 687.97 427.80 688.72 429.73 C 686.58 429.74 684.44 429.76 682.30 429.80 Z" />
<path fill="#3c1235" opacity="0.32" d=" M 337.37 429.84 C 338.18 438.29 337.48 446.81 337.70 455.29 C 337.05 446.82 337.37 438.32 337.37 429.84 Z" />
<path fill="#3c1235" opacity="0.32" d=" M 517.13 430.72 C 518.01 434.21 517.71 437.83 517.52 441.39 C 517.19 437.84 517.11 434.28 517.13 430.72 Z" />
<path fill="#3c1235" opacity="0.32" d=" M 88.30 431.67 C 89.60 439.41 89.85 447.32 89.08 455.13 C 89.15 447.29 88.64 439.49 88.30 431.67 Z" />
<path fill="#3c1235" opacity="0.32" d=" M 292.18 451.30 C 292.19 444.80 291.96 438.25 292.81 431.80 C 292.87 438.31 292.91 444.82 292.18 451.30 Z" />
<path fill="#3c1235" opacity="0.32" d=" M 353.77 450.16 C 353.10 444.80 352.89 439.32 353.88 433.99 C 353.63 439.38 353.77 444.77 353.77 450.16 Z" />
<path fill="#3c1235" opacity="0.32" d=" M 180.66 439.21 C 184.16 439.33 187.72 439.19 191.13 440.11 C 187.63 439.90 184.13 439.68 180.66 439.21 Z" />
<path fill="#3c1235" opacity="0.32" d=" M 556.62 439.25 C 559.82 439.33 563.08 439.24 566.21 440.07 C 563.00 439.87 559.80 439.67 556.62 439.25 Z" />
<path fill="#3c1235" opacity="0.32" d=" M 100.33 440.13 C 104.62 440.23 108.98 439.72 113.22 440.67 C 109.18 440.51 105.14 440.68 101.10 440.77 C 101.06 446.95 100.98 453.14 100.38 459.31 C 100.35 452.91 100.68 446.52 100.33 440.13 Z" />
<path fill="#3c1235" opacity="0.32" d=" M 683.70 440.54 C 686.52 440.25 689.40 440.15 692.21 440.69 C 689.37 440.70 686.53 440.66 683.70 440.54 Z" />
<path fill="#3c1235" opacity="0.32" d=" M 323.20 441.71 C 323.83 449.54 323.75 457.44 323.26 465.28 C 323.13 457.42 323.14 449.56 323.20 441.71 Z" />
<path fill="#3c1235" opacity="0.32" d=" M 481.49 443.76 C 484.27 443.56 487.04 443.32 489.83 443.13 C 489.80 446.27 489.61 449.41 489.54 452.55 C 489.39 449.65 489.29 446.75 489.16 443.86 C 486.60 443.82 484.04 443.80 481.49 443.76 Z" />
<path fill="#3c1235" opacity="0.32" d=" M 504.09 443.08 C 504.82 443.07 506.27 443.05 507.00 443.04 C 506.22 443.69 505.44 444.34 504.67 445.00 C 504.64 447.77 504.61 450.55 504.61 453.33 C 504.12 449.93 504.06 446.50 504.09 443.08 Z" />
<path fill="#3c1235" opacity="0.32" d=" M 511.35 442.96 C 513.44 442.86 515.54 442.90 517.63 443.12 C 516.74 444.92 512.07 444.87 511.35 442.96 Z" />
<path fill="#3c1235" opacity="0.32" d=" M 475.16 444.48 C 476.60 444.05 478.09 443.78 479.60 443.84 C 479.67 445.84 476.04 445.98 475.16 444.48 Z" />
<path fill="#3c1235" opacity="0.32" d=" M 404.17 458.29 C 404.37 453.79 403.91 449.21 405.02 444.80 C 404.88 449.30 404.77 453.82 404.17 458.29 Z" />
<path fill="#3c1235" opacity="0.32" d=" M 680.44 450.86 C 679.49 449.43 679.61 447.57 680.51 446.16 C 681.68 447.32 681.64 449.72 680.44 450.86 Z" />
<path fill="#3c1235" opacity="0.32" d=" M 353.30 467.31 C 353.54 462.47 352.88 457.58 353.80 452.79 C 353.98 457.63 354.08 462.50 353.30 467.31 Z" />
<path fill="#3c1235" opacity="0.32" d=" M 489.61 453.26 C 489.96 455.37 490.14 457.52 490.10 459.67 C 487.88 459.05 488.21 454.79 489.61 453.26 Z" />
<path fill="#3c1235" opacity="0.32" d=" M 307.11 466.21 C 307.18 462.36 307.22 458.51 307.70 454.70 C 307.78 458.54 307.94 462.43 307.11 466.21 Z" />
<path fill="#3c1235" opacity="0.32" d=" M 88.22 465.34 C 88.07 462.19 87.84 458.94 89.01 455.94 C 88.81 459.08 88.51 462.21 88.22 465.34 Z" />
<path fill="#3c1235" opacity="0.32" d=" M 593.23 456.86 C 593.91 459.60 594.25 462.48 593.23 465.19 C 593.37 462.41 593.37 459.63 593.23 456.86 Z" />
<path fill="#3c1235" opacity="0.32" d=" M 228.82 458.00 C 230.25 462.86 229.94 468.17 229.07 473.12 C 229.35 468.08 229.12 463.03 228.82 458.00 Z" />
<path fill="#3c1235" opacity="0.32" d=" M 604.01 458.12 L 605.04 457.99 C 604.99 460.77 604.89 463.55 604.80 466.34 C 604.58 463.59 604.35 460.85 604.01 458.12 Z" />
<path fill="#3c1235" opacity="0.32" d=" M 252.99 464.65 C 252.82 462.79 252.87 460.89 253.56 459.14 C 254.77 460.44 254.94 464.21 252.99 464.65 Z" />
<path fill="#3c1235" opacity="0.32" d=" M 419.12 473.17 C 419.27 468.33 419.47 463.49 419.89 458.67 C 420.11 463.51 420.16 468.41 419.12 473.17 Z" />
<path fill="#3c1235" opacity="0.32" d=" M 365.86 492.33 C 364.87 482.82 364.99 473.20 365.75 463.68 C 365.73 473.23 365.48 482.78 365.86 492.33 Z" />
<path fill="#3c1235" opacity="0.32" d=" M 490.34 463.64 C 490.66 466.47 490.82 469.32 490.89 472.18 C 490.23 469.38 490.21 466.49 490.34 463.64 Z" />
<path fill="#3c1235" opacity="0.32" d=" M 290.99 476.50 C 290.23 473.33 289.95 470.00 290.87 466.84 C 290.87 470.05 290.89 473.27 290.99 476.50 Z" />
<path fill="#3c1235" opacity="0.32" d=" M 161.43 470.15 C 161.91 471.96 162.14 473.82 162.08 475.70 C 159.98 475.41 160.16 471.44 161.43 470.15 Z" />
<path fill="#3c1235" opacity="0.32" d=" M 338.12 470.83 C 339.35 479.24 339.01 487.81 338.77 496.29 C 338.21 487.82 338.54 479.31 338.12 470.83 Z" />
<path fill="#3c1235" opacity="0.32" d=" M 639.76 504.33 C 638.74 493.83 639.54 483.22 639.65 472.68 C 640.29 483.23 639.33 493.78 639.76 504.33 Z" />
<path fill="#3c1235" opacity="0.32" d=" M 289.55 479.93 C 289.24 478.45 289.75 477.64 291.07 477.51 C 291.54 478.53 291.02 481.53 289.55 479.93 Z" />
<path fill="#3c1235" opacity="0.32" d=" M 351.43 488.34 C 351.34 484.84 350.95 481.27 351.93 477.85 C 351.74 481.35 351.75 484.85 351.43 488.34 Z" />
<path fill="#3c1235" opacity="0.32" d=" M 491.17 477.68 C 491.71 485.48 492.15 493.40 491.02 501.17 C 491.25 493.34 491.03 485.51 491.17 477.68 Z" />
<path fill="#3c1235" opacity="0.32" d=" M 692.26 481.30 C 693.56 482.84 693.24 485.11 692.29 486.75 C 691.26 485.25 691.18 482.77 692.26 481.30 Z" />
<path fill="#3c1235" opacity="0.32" d=" M 507.10 481.83 C 507.83 485.23 508.12 488.80 507.07 492.19 C 507.13 488.73 507.11 485.28 507.10 481.83 Z" />
<path fill="#3c1235" opacity="0.32" d=" M 679.33 505.01 C 681.49 505.05 683.67 505.19 685.81 505.66 C 684.20 506.96 679.92 507.22 679.33 505.01 Z" />
<path fill="#3c1235" opacity="0.32" d=" M 131.16 506.68 C 132.57 506.01 134.13 505.72 135.67 506.00 C 135.55 507.84 132.17 507.92 131.16 506.68 Z" />
<path fill="#3c1235" opacity="0.32" d=" M 411.39 507.14 C 412.79 507.10 414.20 507.06 415.61 507.21 C 415.66 509.09 411.24 509.09 411.39 507.14 Z" />
</g>
<g id="#34071cff">
<path fill="#34071c" opacity="1.00" d=" M 388.33 137.32 C 392.78 137.06 397.25 137.00 401.72 137.12 C 409.57 137.43 417.42 137.70 425.27 137.86 C 420.98 144.55 415.45 150.32 409.25 155.25 C 403.07 160.38 397.63 166.41 391.03 171.02 C 390.63 171.38 389.82 172.09 389.42 172.45 C 389.85 174.02 391.88 172.72 392.85 172.39 C 402.74 169.60 414.66 170.13 422.83 177.00 C 426.88 181.13 430.54 185.63 434.23 190.09 C 435.16 191.22 436.07 192.37 437.00 193.52 C 439.26 193.60 441.53 193.51 443.80 193.69 C 441.51 193.71 439.22 193.76 436.93 193.81 C 439.18 197.41 441.56 200.92 444.00 204.39 C 445.93 204.37 447.87 204.36 449.81 204.33 C 448.12 204.62 446.39 204.69 444.70 204.89 C 445.80 207.25 446.97 209.57 448.11 211.92 C 449.64 215.09 451.20 218.24 452.76 221.40 C 453.97 223.84 455.01 226.36 455.87 228.94 C 456.89 232.07 457.92 235.19 458.81 238.37 C 459.35 240.59 459.87 242.87 459.73 245.18 C 459.00 248.49 457.91 251.72 456.92 254.96 C 456.49 256.34 456.04 257.71 455.59 259.08 C 456.35 260.12 457.11 261.17 457.92 262.18 C 461.32 266.54 465.43 270.26 469.52 273.94 C 471.17 275.46 472.67 277.14 474.05 278.91 C 474.27 279.20 474.71 279.77 474.94 280.05 C 477.33 283.52 479.74 286.98 482.39 290.27 C 484.21 292.57 485.85 295.04 487.95 297.11 C 492.22 300.93 497.18 303.87 501.77 307.28 C 514.82 318.10 528.67 328.39 539.00 342.00 C 543.53 347.79 546.42 355.07 552.71 359.28 C 559.84 364.21 565.96 371.95 565.93 380.98 C 566.45 385.39 561.64 388.34 557.69 387.99 C 555.59 387.92 553.50 387.85 551.42 387.96 C 550.90 387.97 549.86 388.00 549.34 388.02 C 548.14 381.37 547.24 374.64 544.96 368.25 C 535.73 370.96 528.80 378.06 520.29 382.24 C 515.82 384.39 511.25 386.65 506.25 387.23 C 498.07 387.90 489.84 386.61 481.69 387.70 C 470.15 388.93 458.24 387.67 447.35 383.58 C 443.55 382.23 441.39 378.57 439.79 375.11 C 435.22 365.52 431.38 355.21 423.79 347.50 C 422.61 350.15 421.60 352.89 420.72 355.66 C 421.32 355.88 422.52 356.33 423.12 356.55 C 422.44 356.73 421.08 357.09 420.41 357.27 C 420.27 357.90 420.00 359.14 419.87 359.77 C 418.37 364.56 417.75 370.03 420.49 374.52 C 422.18 377.41 424.10 380.21 425.15 383.42 C 403.27 389.57 380.82 393.84 358.20 396.04 C 353.73 396.10 349.27 396.13 344.81 396.08 C 338.65 395.73 330.79 393.84 328.69 387.20 C 328.20 374.63 329.17 362.02 328.14 349.48 C 302.44 356.70 276.98 364.75 251.41 372.43 C 250.37 372.73 249.31 372.98 248.24 373.16 C 245.41 373.22 242.59 373.16 239.78 373.05 C 239.28 373.02 238.28 372.95 237.78 372.92 C 267.39 361.11 298.12 352.38 328.20 341.85 C 328.89 331.69 326.38 320.71 331.54 311.34 C 334.11 306.63 336.70 301.95 339.34 297.28 C 340.83 294.73 342.72 292.43 344.73 290.26 C 347.78 287.04 350.88 283.77 352.91 279.78 C 352.94 277.10 353.47 273.91 351.96 271.60 C 343.36 271.48 334.71 271.98 326.17 271.22 C 334.91 271.14 343.64 271.02 352.38 271.22 C 351.53 268.02 350.55 264.85 349.28 261.79 C 348.31 259.48 347.45 257.13 346.71 254.74 C 345.63 251.36 344.40 248.03 343.18 244.71 C 342.64 243.20 342.18 241.66 341.88 240.09 C 341.08 235.56 340.53 230.99 339.87 226.44 C 339.91 220.64 340.26 214.71 342.23 209.20 C 343.36 205.95 345.01 202.91 346.38 199.76 C 337.90 202.31 330.03 206.79 321.21 208.23 C 317.64 208.48 314.06 208.46 310.48 208.49 C 312.00 199.88 317.03 192.60 320.94 184.96 C 327.23 172.83 332.99 160.43 339.25 148.29 C 340.48 145.99 341.95 143.30 344.84 142.96 C 356.00 140.39 367.36 138.69 378.78 137.86 C 381.96 137.72 385.15 137.55 388.33 137.32 Z" />
<path fill="#34071c" opacity="1.00" d=" M 173.73 428.54 C 178.28 427.56 182.86 425.34 187.60 426.35 C 192.00 427.27 196.49 427.82 200.80 429.15 C 205.25 430.60 210.11 431.15 213.98 434.00 C 217.01 436.25 220.17 438.45 222.69 441.28 C 225.94 446.32 227.64 452.17 228.82 458.00 C 229.12 463.03 229.35 468.08 229.07 473.12 C 227.32 482.43 223.38 491.75 215.65 497.66 C 210.55 501.28 205.11 504.88 198.88 506.18 C 189.69 507.44 179.72 507.25 171.45 502.56 C 165.91 498.51 160.05 494.50 156.48 488.46 C 150.52 480.26 150.93 469.65 150.86 460.01 C 150.35 452.82 154.36 446.55 157.23 440.28 C 160.13 433.69 167.01 430.08 173.73 428.54 M 165.72 451.70 C 162.56 457.25 160.51 463.74 161.43 470.15 C 160.16 471.44 159.98 475.41 162.08 475.70 C 161.97 481.26 166.29 485.44 169.69 489.33 C 174.88 494.87 182.82 495.91 190.01 496.13 C 198.49 495.68 207.53 491.28 211.23 483.28 C 212.94 479.89 214.98 476.60 215.91 472.88 C 217.14 467.53 219.25 461.99 217.57 456.49 C 216.54 450.47 211.23 446.71 206.40 443.73 C 201.51 441.84 196.21 441.32 191.13 440.11 C 187.72 439.19 184.16 439.33 180.66 439.21 C 180.26 439.18 179.47 439.13 179.07 439.10 C 173.02 441.00 168.19 445.91 165.72 451.70 Z" />
<path fill="#34071c" opacity="1.00" d=" M 541.39 431.41 C 547.23 428.63 553.68 427.20 560.01 426.05 C 567.51 426.84 574.90 428.69 582.15 430.78 C 588.24 432.11 593.00 436.49 597.54 440.49 C 601.32 445.58 603.24 451.87 604.01 458.12 C 604.35 460.85 604.58 463.59 604.80 466.34 C 605.42 471.69 603.56 476.85 602.18 481.93 C 599.35 490.27 593.21 497.32 585.45 501.45 C 576.24 507.80 564.12 507.93 553.63 505.31 C 547.04 503.87 542.20 498.92 537.10 494.89 C 531.37 489.01 527.09 481.38 526.79 473.01 C 526.56 466.17 525.62 459.09 527.30 452.38 C 530.70 444.74 533.22 435.36 541.39 431.41 M 549.00 441.95 C 543.35 445.70 540.85 452.29 538.19 458.22 C 536.14 465.41 535.89 473.41 538.57 480.47 C 541.45 485.64 545.39 490.49 550.66 493.35 C 555.15 495.32 560.14 495.86 564.99 496.15 C 574.04 495.89 583.65 490.99 587.22 482.30 C 590.42 477.07 592.11 471.17 593.23 465.19 C 594.25 462.48 593.91 459.60 593.23 456.86 C 592.20 450.57 586.70 446.51 581.51 443.59 C 576.57 441.84 571.32 441.15 566.21 440.07 C 563.08 439.24 559.82 439.33 556.62 439.25 C 553.72 438.46 551.30 440.55 549.00 441.95 Z" />
<path fill="#34071c" opacity="1.00" d=" M 606.78 426.74 C 609.52 426.37 612.26 425.99 615.00 425.56 C 617.52 429.79 620.91 433.44 623.20 437.81 C 625.80 442.66 628.05 447.72 631.22 452.25 C 636.05 446.35 640.04 439.81 645.07 434.07 C 646.79 431.92 647.96 429.41 649.09 426.91 C 650.65 426.89 652.22 426.86 653.79 426.85 C 657.26 426.88 660.73 426.87 664.21 426.90 L 665.30 426.92 C 663.60 431.86 659.96 435.81 657.02 440.04 C 652.49 444.78 649.42 450.60 646.11 456.19 C 644.44 459.13 641.59 461.20 639.95 464.16 C 639.34 466.95 639.85 469.84 639.65 472.68 C 639.54 483.22 638.74 493.83 639.76 504.33 C 639.92 505.43 640.08 506.54 640.25 507.65 C 634.80 508.65 629.27 508.47 623.80 507.81 C 624.01 501.54 624.45 495.29 624.26 489.02 C 623.92 482.65 625.30 476.35 625.17 469.99 C 625.05 468.64 624.16 467.55 623.56 466.40 C 618.46 457.55 613.73 448.46 607.98 440.00 C 605.78 437.04 603.40 434.23 601.41 431.13 C 602.09 429.83 602.78 428.54 603.46 427.24 C 604.56 427.06 605.67 426.89 606.78 426.74 Z" />
<path fill="#34071c" opacity="1.00" d=" M 88.30 431.67 C 87.28 429.37 89.39 427.07 91.75 427.44 C 94.65 427.54 97.55 427.45 100.44 427.28 C 101.12 427.32 102.49 427.40 103.17 427.43 C 104.98 427.83 106.82 428.10 108.68 428.08 C 114.00 428.32 118.94 430.59 124.10 431.71 C 129.36 432.62 132.92 437.06 136.02 441.02 C 138.35 446.38 140.49 452.92 137.51 458.47 C 133.66 465.79 125.44 469.06 117.98 471.42 C 124.52 477.67 128.69 485.73 134.22 492.79 C 136.80 496.20 139.03 499.86 141.73 503.19 C 140.43 505.38 138.28 506.82 135.67 506.00 C 134.13 505.72 132.57 506.01 131.16 506.68 C 130.44 506.84 129.00 507.16 128.27 507.32 C 122.28 500.23 118.77 491.34 112.73 484.27 C 109.33 480.62 105.80 477.07 101.62 474.31 C 100.57 478.45 100.01 482.72 100.27 487.00 C 100.09 493.26 99.65 499.54 99.07 505.78 C 96.99 508.42 92.92 507.25 89.95 507.55 C 87.86 507.86 88.13 505.27 88.07 503.98 C 88.41 491.10 88.63 478.21 88.22 465.34 C 88.51 462.21 88.81 459.08 89.01 455.94 L 89.08 455.13 C 89.85 447.32 89.60 439.41 88.30 431.67 M 100.33 440.13 C 100.68 446.52 100.35 452.91 100.38 459.31 C 100.33 459.93 100.23 461.18 100.18 461.80 C 108.14 463.09 116.72 462.02 123.49 457.46 C 126.08 454.80 128.29 449.93 125.29 446.76 C 122.52 442.90 117.92 440.77 113.22 440.67 C 108.98 439.72 104.62 440.23 100.33 440.13 Z" />
<path fill="#34071c" opacity="1.00" d=" M 241.98 427.05 C 245.97 425.43 249.03 428.92 251.65 431.34 C 258.95 439.47 265.85 448.06 271.66 457.32 C 276.25 465.86 283.22 472.70 289.55 479.93 C 291.02 481.53 291.54 478.53 291.07 477.51 L 290.99 476.50 C 290.89 473.27 290.87 470.05 290.87 466.84 C 290.88 461.62 292.03 456.50 292.18 451.30 C 292.91 444.82 292.87 438.31 292.81 431.80 C 292.88 430.65 292.98 429.51 293.13 428.37 C 298.79 428.05 304.57 426.65 310.16 428.34 C 310.04 430.11 310.10 431.88 310.17 433.66 C 309.56 440.68 308.52 447.68 307.70 454.70 C 307.22 458.51 307.18 462.36 307.11 466.21 C 306.67 473.21 306.24 480.23 305.10 487.17 C 304.46 493.86 304.43 500.65 303.17 507.27 C 301.25 508.43 298.44 507.73 297.07 505.95 C 293.29 501.71 288.79 498.22 284.95 494.04 C 281.52 490.31 279.76 485.39 276.36 481.63 C 273.68 478.62 271.48 475.21 268.78 472.21 C 266.44 469.56 263.18 467.86 261.13 464.93 C 258.95 461.82 257.08 458.50 254.81 455.44 C 254.38 456.66 253.96 457.90 253.56 459.14 C 252.87 460.89 252.82 462.79 252.99 464.65 C 253.13 475.42 252.03 486.35 254.22 496.99 C 254.75 499.18 253.74 501.28 253.13 503.34 C 248.76 502.99 244.39 502.84 240.01 502.79 C 238.12 497.07 238.93 490.92 239.08 485.01 C 238.91 475.62 241.74 466.43 241.24 457.01 C 241.61 449.28 240.36 441.50 241.58 433.82 C 241.98 431.99 242.29 430.12 242.06 428.25 L 241.98 427.05 Z" />
<path fill="#34071c" opacity="1.00" d=" M 355.01 427.11 C 355.81 426.96 357.41 426.66 358.21 426.51 C 367.85 433.30 374.10 443.61 381.28 452.73 C 385.49 459.68 389.75 466.69 395.44 472.56 C 398.07 475.12 400.14 478.21 403.00 480.53 C 403.71 473.13 402.82 465.64 404.17 458.29 C 404.77 453.82 404.88 449.30 405.02 444.80 C 405.35 439.69 404.91 434.55 405.45 429.46 C 405.66 429.18 406.09 428.62 406.31 428.33 C 411.86 427.68 417.52 427.04 423.07 428.17 C 423.52 434.17 421.60 439.97 421.27 445.92 C 420.91 450.18 420.18 454.40 419.89 458.67 C 419.47 463.49 419.27 468.33 419.12 473.17 C 419.02 479.82 417.31 486.31 417.13 492.95 C 417.05 497.74 416.17 502.46 415.61 507.21 C 414.20 507.06 412.79 507.10 411.39 507.14 C 408.40 505.46 406.51 502.32 403.83 500.20 C 399.26 496.35 395.16 491.91 392.36 486.60 C 389.74 482.03 385.90 478.33 382.87 474.05 C 380.13 470.14 375.51 468.05 372.97 463.98 C 371.01 461.13 369.59 457.78 366.74 455.66 C 366.31 458.31 365.97 460.99 365.75 463.68 C 364.99 473.20 364.87 482.82 365.86 492.33 C 366.39 495.84 368.21 500.48 364.98 503.20 C 361.07 503.09 357.16 503.03 353.27 502.67 C 351.95 502.48 351.81 500.80 351.54 499.77 C 351.24 495.97 351.28 492.14 351.43 488.34 C 351.75 484.85 351.74 481.35 351.93 477.85 C 352.36 474.33 352.85 470.82 353.30 467.31 C 354.08 462.50 353.98 457.63 353.80 452.79 C 353.79 452.13 353.77 450.82 353.77 450.16 C 353.77 444.77 353.63 439.38 353.88 433.99 L 353.98 433.17 C 354.28 431.14 354.64 429.12 355.01 427.11 Z" />
<path fill="#34071c" opacity="1.00" d=" M 322.29 429.01 C 325.74 427.89 329.36 428.28 332.91 428.44 C 334.46 428.56 336.21 428.65 337.37 429.84 C 337.37 438.32 337.05 446.82 337.70 455.29 C 338.23 460.45 337.65 465.65 338.12 470.83 C 338.54 479.31 338.21 487.82 338.77 496.29 C 338.98 499.24 339.42 502.17 339.99 505.08 C 334.81 506.47 329.36 505.50 324.06 505.85 C 322.25 492.43 322.83 478.78 323.26 465.28 C 323.75 457.44 323.83 449.54 323.20 441.71 C 322.80 437.48 322.95 433.21 322.29 429.01 Z" />
<path fill="#34071c" opacity="1.00" d=" M 470.05 428.71 C 471.59 428.78 473.14 428.90 474.68 429.10 C 479.86 429.85 485.12 429.74 490.32 429.21 C 493.10 429.02 495.89 429.12 498.68 429.24 C 501.84 429.48 505.02 429.67 508.20 429.71 C 511.17 429.76 514.15 429.56 517.12 429.66 L 517.13 430.72 C 517.11 434.28 517.19 437.84 517.52 441.39 C 517.55 441.82 517.60 442.68 517.63 443.12 C 515.54 442.90 513.44 442.86 511.35 442.96 C 509.90 442.99 508.44 443.02 507.00 443.04 C 506.27 443.05 504.82 443.07 504.09 443.08 C 504.06 446.50 504.12 449.93 504.61 453.33 C 505.30 462.83 506.98 472.27 507.10 481.83 C 507.11 485.28 507.13 488.73 507.07 492.19 C 506.37 497.56 507.58 502.83 508.26 508.13 C 501.99 507.40 495.77 508.24 489.51 508.44 C 489.41 505.90 490.26 503.53 491.02 501.17 C 492.15 493.40 491.71 485.48 491.17 477.68 C 491.03 475.84 490.95 474.01 490.89 472.18 C 490.82 469.32 490.66 466.47 490.34 463.64 C 490.19 462.31 490.11 460.99 490.10 459.67 C 490.14 457.52 489.96 455.37 489.61 453.26 L 489.54 452.55 C 489.61 449.41 489.80 446.27 489.83 443.13 C 487.04 443.32 484.27 443.56 481.49 443.76 C 481.02 443.78 480.08 443.82 479.60 443.84 C 478.09 443.78 476.60 444.05 475.16 444.48 C 473.87 444.76 472.58 445.00 471.28 445.18 C 471.16 439.66 470.00 434.23 470.05 428.71 Z" />
<path fill="#34071c" opacity="1.00" d=" M 670.91 443.05 C 672.20 437.28 675.94 430.78 682.30 429.80 C 684.44 429.76 686.58 429.74 688.72 429.73 C 693.20 429.60 697.24 431.79 700.99 433.98 C 703.58 435.56 706.41 436.78 708.74 438.77 C 706.12 442.62 703.35 446.36 700.65 450.15 C 697.24 447.54 695.90 443.02 692.21 440.69 C 689.40 440.15 686.52 440.25 683.70 440.54 C 682.52 442.34 681.40 444.19 680.51 446.16 C 679.61 447.57 679.49 449.43 680.44 450.86 C 684.25 458.89 692.15 463.70 698.65 469.33 C 705.05 474.73 707.49 483.84 706.04 491.92 C 705.25 496.65 701.94 500.40 698.53 503.54 C 695.01 506.39 690.06 506.54 685.81 505.66 C 683.67 505.19 681.49 505.05 679.33 505.01 C 674.82 504.81 671.00 502.07 667.45 499.55 C 663.27 496.74 661.34 491.81 660.00 487.17 C 662.09 485.05 665.01 483.96 667.56 482.49 C 668.54 481.67 670.36 481.59 670.84 483.02 C 672.33 486.32 674.18 489.71 677.60 491.37 C 682.63 493.51 690.33 492.75 692.29 486.75 C 693.24 485.11 693.56 482.84 692.26 481.30 C 688.43 476.33 684.70 471.19 679.81 467.19 C 673.04 461.18 670.55 451.82 670.91 443.05 Z" />
</g>
<g id="#7803aaff">
<path fill="#7803aa" opacity="1.00" d=" M 422.83 177.00 C 436.46 177.89 450.34 180.61 462.53 186.97 C 453.16 188.33 442.75 184.57 434.23 190.09 C 430.54 185.63 426.88 181.13 422.83 177.00 Z" />
<path fill="#7803aa" opacity="1.00" d=" M 436.93 193.81 C 439.22 193.76 441.51 193.71 443.80 193.69 C 452.87 194.43 461.97 193.72 471.05 193.93 C 478.52 193.70 484.02 199.54 489.44 203.84 C 476.23 204.26 462.99 203.12 449.81 204.33 C 447.87 204.36 445.93 204.37 444.00 204.39 C 441.56 200.92 439.18 197.41 436.93 193.81 Z" />
<path fill="#7803aa" opacity="1.00" d=" M 448.11 211.92 C 449.95 212.00 451.81 212.08 453.67 212.22 C 468.14 213.23 482.68 212.47 497.19 212.60 C 499.67 215.17 501.82 218.04 504.07 220.82 C 501.82 220.85 499.57 220.92 497.33 220.78 C 485.80 220.10 474.19 219.96 462.67 220.79 C 459.37 221.04 456.06 221.22 452.76 221.40 C 451.20 218.24 449.64 215.09 448.11 211.92 Z" />
<path fill="#7803aa" opacity="1.00" d=" M 331.14 237.66 C 333.61 233.62 335.96 229.29 339.87 226.44 C 340.53 230.99 341.08 235.56 341.88 240.09 C 341.65 239.47 341.21 238.23 340.98 237.61 C 337.70 237.66 334.42 237.65 331.14 237.66 Z" />
<path fill="#7803aa" opacity="1.00" d=" M 455.87 228.94 C 470.91 228.73 485.95 228.89 500.98 228.85 C 503.47 229.04 506.13 228.62 508.49 229.56 C 510.77 231.58 511.36 234.78 512.62 237.43 C 494.71 238.41 476.71 236.67 458.81 238.37 C 457.92 235.19 456.89 232.07 455.87 228.94 Z" />
<path fill="#7803aa" opacity="1.00" d=" M 328.40 246.18 C 333.34 245.78 338.27 245.36 343.18 244.71 C 344.40 248.03 345.63 251.36 346.71 254.74 C 340.29 254.21 333.85 254.87 327.42 254.62 C 327.81 251.81 328.13 249.00 328.40 246.18 Z" />
<path fill="#7803aa" opacity="1.00" d=" M 459.73 245.18 C 478.40 246.17 497.12 245.59 515.82 245.52 C 515.70 248.47 517.15 251.99 515.77 254.59 C 496.16 254.76 476.53 254.10 456.92 254.96 C 457.91 251.72 459.00 248.49 459.73 245.18 Z" />
<path fill="#7803aa" opacity="1.00" d=" M 325.86 262.30 C 333.67 262.69 341.50 262.57 349.28 261.79 C 350.55 264.85 351.53 268.02 352.38 271.22 C 343.64 271.02 334.91 271.14 326.17 271.22 C 324.80 268.63 326.01 265.21 325.86 262.30 Z" />
<path fill="#7803aa" opacity="1.00" d=" M 457.92 262.18 C 478.56 262.76 499.21 262.46 519.86 262.31 C 519.96 265.29 520.01 268.27 520.05 271.26 C 507.01 271.43 493.98 271.09 480.94 271.29 C 476.98 271.27 473.16 272.47 469.52 273.94 C 465.43 270.26 461.32 266.54 457.92 262.18 Z" />
<path fill="#7803aa" opacity="1.00" d=" M 325.75 280.18 C 334.76 279.11 343.86 279.03 352.91 279.78 C 350.88 283.77 347.78 287.04 344.73 290.26 C 338.67 287.86 332.05 287.75 325.62 287.79 C 325.59 285.25 325.63 282.72 325.75 280.18 Z" />
<path fill="#7803aa" opacity="1.00" d=" M 474.94 280.05 C 489.95 279.41 504.99 279.64 520.01 279.84 C 520.00 282.54 519.99 285.25 519.96 287.95 C 516.73 288.00 513.50 288.11 510.28 287.86 C 504.76 287.22 499.17 287.00 493.66 287.86 C 489.84 288.32 486.02 288.96 482.39 290.27 C 479.74 286.98 477.33 283.52 474.94 280.05 Z" />
<path fill="#7803aa" opacity="1.00" d=" M 327.11 297.90 C 331.18 297.66 335.26 297.46 339.34 297.28 C 336.70 301.95 334.11 306.63 331.54 311.34 C 330.12 306.84 328.61 302.37 327.11 297.90 Z" />
<path fill="#7803aa" opacity="1.00" d=" M 487.95 297.11 C 497.45 298.04 506.99 297.52 516.52 297.63 C 516.29 299.94 516.06 302.26 515.80 304.57 C 511.12 305.47 506.44 306.33 501.77 307.28 C 497.18 303.87 492.22 300.93 487.95 297.11 Z" />
<path fill="#7803aa" opacity="1.00" d=" M 420.72 355.66 C 421.60 352.89 422.61 350.15 423.79 347.50 C 431.38 355.21 435.22 365.52 439.79 375.11 C 433.78 372.57 426.57 371.98 420.49 374.52 C 417.75 370.03 418.37 364.56 419.87 359.77 C 419.91 361.29 419.97 362.82 420.04 364.35 C 424.49 364.55 428.95 364.59 433.39 364.32 C 431.40 360.17 427.39 357.79 423.12 356.55 C 422.52 356.33 421.32 355.88 420.72 355.66 Z" />
</g>
<g id="#660c8999">
<path fill="#660c89" opacity="0.60" d=" M 453.67 212.22 C 460.44 211.95 467.22 212.31 474.00 212.22 C 481.72 212.28 489.50 211.47 497.19 212.60 C 482.68 212.47 468.14 213.23 453.67 212.22 Z" />
<path fill="#660c89" opacity="0.60" d=" M 462.67 220.79 C 474.19 219.96 485.80 220.10 497.33 220.78 C 485.78 221.18 474.22 220.67 462.67 220.79 Z" />
<path fill="#660c89" opacity="0.60" d=" M 474.05 278.91 C 489.35 279.50 504.68 279.19 519.99 278.97 L 520.01 279.84 C 504.99 279.64 489.95 279.41 474.94 280.05 C 474.71 279.77 474.27 279.20 474.05 278.91 Z" />
<path fill="#660c89" opacity="0.60" d=" M 493.66 287.86 C 499.17 287.00 504.76 287.22 510.28 287.86 C 504.75 288.13 499.20 288.01 493.66 287.86 Z" />
</g>
</svg>
